<?xml
version="1.0" encoding="utf-8"?>
<!-- Generator: Adobe Illustrator 25.2.1, SVG Export Plug-In . SVG Version: 6.00 Build 0)  -->
<svg version="1.1" id="Calque_1" xmlns="http://www.w3.org/2000/svg" xmlns:xlink="http://www.w3.org/1999/xlink" x="0px" y="0px" viewBox="0 0 186 262" style="enable-background:new 0 0 186 262;" xml:space="preserve">

  <g>
    <g id="background_2_">
      <path fill="#F2F2F4" d="M27.9,69.72c1.91-9.8,6.12-19.1,12.15-27.1c4.02-5.3,8.73-9.9,14.15-13.9c11.34-8.2,24.8-12.5,38.75-12.5
        			c14.15,0,27.61,4.4,38.95,12.7c5.32,3.9,10.14,8.6,14.15,13.9c6.02,8.1,10.14,17.3,12.05,27.2L27.9,69.72z"/>
      <path fill="#F2F2F4" d="M58.22,252.72c-5.52,0-10.54-3-13.25-7.9c-0.9-1.7-1.51-3.6-1.71-5.5L26.6,89.72H16.06
      			c-3.92,0-7.03-3.2-7.03-7.1c0-0.3,0-0.5,0.1-0.8c0.4-3.6,3.41-6.2,7.03-6.2h4.32l145.36,0.3h4.32c3.92,0,7.03,3.2,7.03,7.1
      			c0,0.3,0,0.6,0,0.8c-0.4,3.6-3.41,6.3-6.93,6.3h-10.74l-17.17,149.5c-0.3,2.7-1.31,5.2-2.91,7.3c-2.81,3.8-7.33,6.1-12.05,6.1
      			L58.22,252.72z"/>
    </g>
    <g id="border_2_">
      <path fill="none" stroke="#ABABBA" strokeWidth="2.9691" strokeLinecap="round" strokeLinejoin="round" strokeMiterlimit="10" d="M165.73,69.22l-145.36-0.3c1.2-14.1,6.42-27,14.46-37.7c4.42-5.8,9.64-10.9,15.56-15.2
        			c12.05-8.7,26.8-13.8,42.76-13.8c15.96,0,30.72,5.2,42.66,13.9c5.92,4.3,11.14,9.5,15.56,15.3
        			C159.41,42.22,164.63,55.12,165.73,69.22z"/>
      <path fill="none" stroke="#ABABBA" strokeWidth="2.9691" strokeLinecap="round" strokeLinejoin="round" strokeMiterlimit="10" d="M183.6,82.92c0,0.6,0,1.1-0.1,1.6c-0.8,6.8-6.53,12-13.55,12h-4.62l-16.46,143.7c-0.5,3.9-1.91,7.5-4.12,10.5
        			c-4.02,5.3-10.34,8.7-17.37,8.7l-69.17-0.1c-8.13,0-15.26-4.5-18.97-11.3c-1.31-2.4-2.21-5.1-2.51-8L20.77,96.22h-4.72
        			c-7.53,0-13.55-6.1-13.55-13.7c0-0.5,0-1.1,0.1-1.6c0.8-6.8,6.53-12,13.55-12h4.32l145.36,0.3h4.22
        			C177.58,69.22,183.6,75.32,183.6,82.92z"/>
      <path fill="none" stroke="#ABABBA" strokeWidth="2.9691" strokeLinecap="round" strokeLinejoin="round" strokeMiterlimit="10" d="M102.59,2.92c6.12,0.8,9.24,2.3,9.24,4.2c0,2.7-8.33,4.9-18.67,4.8c-10.34,0-18.67-2.2-18.67-4.9
      			c0-2.2,4.92-4,12.75-4.6"/>
    </g>
  </g>
</svg>
