<?xml version="1.0" encoding="utf-8"?>
<!-- Generator: Adobe Illustrator 25.2.1, SVG Export Plug-In . SVG Version: 6.00 Build 0)  -->
<svg version="1.1" id="Calque_1" xmlns="http://www.w3.org/2000/svg" xmlns:xlink="http://www.w3.org/1999/xlink" x="0px" y="0px"
	 viewBox="0 0 201 191" style="enable-background:new 0 0 201 191;" xml:space="preserve">

<path fill="#CCC" d="M200.32,117.88c-2.48,8-11.03,12.5-18.98,9.9c-7.95-2.5-12.32-11.1-9.84-19.2c2.48-8,11.03-12.5,18.98-9.9
	C198.43,101.18,202.8,109.78,200.32,117.88z"/>
<path fill="#CCC" d="M145.17,57.78c-2.78,9-12.32,14-21.26,11.1c-8.94-2.8-13.81-12.5-11.03-21.5s12.32-14,21.26-11.1
	C143.08,39.08,148.05,48.78,145.17,57.78z"/>
<path fill="#CCC" d="M32.59,93.78c-2.78,8.9-12.22,13.8-20.97,11c-8.84-2.8-13.61-12.3-10.83-21.2c2.78-8.9,12.22-13.8,20.97-11
	C30.5,75.38,35.37,84.88,32.59,93.78z"/>
<path fill="#CCC" d="M94.69,104.08c-1.99,6.2-8.45,9.6-14.61,7.6c-6.06-2-9.44-8.5-7.55-14.7c1.99-6.2,8.45-9.6,14.61-7.6
	C93.3,91.28,96.68,97.88,94.69,104.08z"/>
<path fill="#CCC" d="M61.8,181.18c-2.38,7.6-10.43,11.9-17.98,9.5s-11.73-10.6-9.34-18.2s10.43-11.9,17.98-9.5
	S64.29,173.58,61.8,181.18z"/>
<path fill="#CCC" d="M36.56,18.88c-2.38,7.6-10.33,11.8-17.89,9.3c-7.45-2.4-11.63-10.5-9.24-18.1c2.38-7.6,10.33-11.8,17.89-9.4
	C34.77,3.18,38.85,11.28,36.56,18.88z"/>
<path fill="#CCC" d="M154.51,178.48c-2.98,9.6-13.22,15-22.66,11.9c-9.54-3.1-14.81-13.3-11.73-23c2.98-9.6,13.22-14.9,22.66-11.9
	C152.22,158.48,157.49,168.78,154.51,178.48z"/>
</svg>
