<?xml version="1.0" encoding="utf-8"?>
<!-- Generator: Adobe Illustrator 25.2.1, SVG Export Plug-In . SVG Version: 6.00 Build 0)  -->
<svg version="1.1" id="Calque_1" xmlns="http://www.w3.org/2000/svg" xmlns:xlink="http://www.w3.org/1999/xlink" x="0px" y="0px"
	 viewBox="0 0 160 196" style="enable-background:new 0 0 160 196;" xml:space="preserve">

<path opacity="0.52" fill="#CBCCD5" enableBackground="new"  d="M159.35,0.28l-16.53,153.06c-2.66,24.32-23.09,42.75-47.31,42.66h-4.28l-27.65-0.09
	c-1.43,0-2.85-0.09-4.18-0.19l0,0c-22.42-2-40.57-19.76-42.94-42.66L0.4,0c7.03,2.66,14.06,5.04,21.19,6.94
	c3.23,0.86,6.37,1.71,9.6,2.47l0,0c3.99,0.95,7.98,1.71,11.97,2.38h0.1c3.52,0.57,6.94,1.14,10.45,1.52
	c4.66,0.57,9.31,0.95,13.97,1.24c15.01,0.76,30.12,0,45.41-2.38C128.28,9.79,143.77,5.8,159.35,0.28z"/>
<path fill="#BABBC6" d="M9.52,88.64l6.75,64.41c2.57,24.32,22.9,42.75,47.22,42.85L95.41,196c24.32,0,44.75-18.34,47.31-42.66
	l5.89-55.2C98.54,76.48,70.14,76.58,9.52,88.64z"/>
</svg>
